{"title":"Priest 2011 BDRip 1080p Dual Audio [Hin DD 5.1-Eng Dts] Tariq Qu","uid":9208919,"size":3519273350,"categoryP":"video","categoryS":"hd___movies","magnet":"?xt=urn:btih:b6e4635a259f73d839710d0ad2b05cd5b1c562cd&amp;dn=Priest+2011+BDRip+1080p+Dual+Audio+%5BHin+DD+5.1-Eng+Dts%5D+Tariq+Qu&amp;tr=udp%3A%2F%2Ftracker.openbittorrent.com%3A80&amp;tr=udp%3A%2F%2Fopen.demonii.com%3A1337&amp;tr=udp%3A%2F%2Ftracker.coppersurfer.tk%3A6969&amp;tr=udp%3A%2F%2Fexodus.desync.com%3A6969","seeders":1,"leechers":0,"uploader":"tariq51","files":7,"time":1384744698,"description":"                                           [IMG]http://i.imgur.com/LhRnzSt.png[/IMG]\n\n\n\n[b][i][size=3][color=blue]RELEASE TITLE:[/color][/size][/i][/b]\n          ======================================\n[b][i][size=3][color=maroon]Priest 2011 BDRip 1080p Dual Audio [Hin DD 5.1-Eng Dts] Tariq Qureshi.mkv[/color][/size][/i][/b]\n\n\n                     =================================================\n[b][i][size=2][color=fuchsia]THANKS TO \n   Invincible Rajat FOR HINDI AUDIO [/color][/size][/i][/b]\n                            \n                                         \n========================================================================\n[IMG]http://i.imgur.com/Ko3YE5T.png[/IMG]\n===========================================\n\n[b][i][size=3][color=red]General:[/color][/size][/i][/b]\n======================================\n[b][i][size=2][color=green]IMDB LINK                                :http://www.imdb.com/title/tt0822847/\nFormat                                   : Matroska\nFormat version                           : Version 4 / Version 2\nFile size                                : 3.20 GiB\nDuration                                 : 1h 27mn\nOverall bit rate                         : 5 233 Kbps\nEncoded date                             : UTC 2013-11-12 10:16:48\nMovie name                               : Priest 2011 BDRip 1080p Dual Audio [Hin DD 5.1-Eng Dts] Tariq Qureshi.mkv[/color][/size][/i][/b]\n                                   \n=======================================================================================\n[b][i][size=3][color=red]VIDEO:[/color][/size][/i][/b]\n                            =======================\n\n[b][i][size=2][color=green]ID                                       : 1\nFormat                                   : AVC\nFormat/Info                              : Advanced Video Codec\nFormat profile                           : &lt;a class=&quot;__cf_email__&quot; href=&quot;/cdn-cgi/l/email-protection&quot; data-cfemail=&quot;4800212f2008047c6679&quot;&gt;[email&amp;#160;protected]&lt;/a&gt;&lt;script cf-hash='f9e31' type=&quot;text/javascript&quot;&gt;\n/* &lt;![CDATA[ */!function(){try{var t=&quot;currentScript&quot;in document?document.currentScript:function(){for(var t=document.getElementsByTagName(&quot;script&quot;),e=t.length;e--;)if(t[e].getAttribute(&quot;cf-hash&quot;))return t[e]}();if(t&amp;&amp;t.previousSibling){var e,r,n,i,c=t.previousSibling,a=c.getAttribute(&quot;data-cfemail&quot;);if(a){for(e=&quot;&quot;,r=parseInt(a.substr(0,2),16),n=2;a.length-n;n+=2)i=parseInt(a.substr(n,2),16)^r,e+=String.fromCharCode(i);e=document.createTextNode(e),c.parentNode.replaceChild(e,c)}}}catch(u){}}();/* ]]&gt; */&lt;/script&gt;\nFormat settings, CABAC                   : Yes\nFormat settings, ReFrames                : 4 frames\nCodec ID                                 : V_MPEG4/ISO/AVC\nDuration                                 : 1h 27mn\nBit rate                                 : 4 028 Kbps\nWidth                                    : 1 920 pixels\nHeight                                   : 800 pixels\nDisplay aspect ratio                     : 2.40:1\nFrame rate mode                          : Constant\nFrame rate                               : 23.976 fps\nLanguage                                 : English\nDefault                                  : Yes\nForced                                   : No[/color][/size][/i][/b]\n=====================================================================================\n[b][i][size=3][color=red]AUDIO:1[/color][/size][/i][/b]\n          ================\n[b][i][size=2][color=green]ID                                       : 2\nFormat                                   : DTS\nFormat/Info                              : Digital Theater Systems\nMode                                     : 16\nFormat settings, Endianness              : Big\nCodec ID                                 : A_DTS\nDuration                                 : 1h 27mn\nBit rate mode                            : Constant\nBit rate                                 : 755 Kbps\nChannel(s)                               : 6 channels\nChannel positions                        : Front: L C R, Side: L R, LFE\nSampling rate                            : 48.0 KHz\nBit depth                                : 24 bits\nCompression mode                         : Lossy\nStream size                              : 472 MiB (14%)\nTitle                                    : Dts Tariq Qureshi\nLanguage                                 : English\nDefault                                  : No\nForced                                   : No[/color][/size][/i][/b]\n\n===================================================================================\n[b][i][size=3][color=red]AUDIO:2[/color][/size][/i][/b]\n            ================\n[b][i][size=2][color=green]ID                                       : 3\nFormat                                   : AC-3\nFormat/Info                              : Audio Coding 3\nMode extension                           : CM (complete main)\nFormat settings, Endianness              : Big\nCodec ID                                 : A_AC3\nDuration                                 : 1h 27mn\nBit rate mode                            : Constant\nBit rate                                 : 448 Kbps\nChannel(s)                               : 6 channels\nChannel positions                        : Front: L C R, Side: L R, LFE\nSampling rate                            : 48.0 KHz\nBit depth                                : 16 bits\nCompression mode                         : Lossy\nStream size                              : 280 MiB (9%)\nTitle                                    : 5.1 DD Tariq Qureshi\nLanguage                                 : Hindi\nDefault                                  : Yes\nForced                                   : No[/color][/size][/i][/b]\n\n===================================================================================\n[b][i][size=3][color=red][IMG]http://i.imgur.com/Q3KFG70.gif[/IMG][/color][/size][/i][/b]\n            =========================\n[IMG]http://i.imgur.com/cfe1jGa.png[/IMG]\n[IMG]http://i.imgur.com/3YEGzVN.png[/IMG]\n[IMG]http://i.imgur.com/xvfl1kF.png[/IMG]\n[IMG]http://i.imgur.com/nkhyYLE.png[/IMG]\n[IMG]http://i.imgur.com/0LBsinL.png[/IMG]\n[IMG]http://i.imgur.com/Z7iSxKE.png[/IMG]\n[IMG]http://i.imgur.com/0TVsCQi.png[/IMG]\n[IMG]http://i.imgur.com/xF1GpZG.png[/IMG]\n[IMG]http://i.imgur.com/aflz8cv.png[/IMG]\n[IMG]http://i.imgur.com/qVS7FO2.png[/IMG]\n[IMG]http://i.imgur.com/minzo0X.png[/IMG]\n===================================================================================\n                                                [IMG]http://i.imgur.com/MO8y8TI.jpg[/IMG]\n===================================================================================\n\n[b][i][size=3][color=red]SEEDING FROM HIGH SPEED SEEDBOX[/color][/size][/i][/b]","torrent":{"xt":"urn:btih:b6e4635a259f73d839710d0ad2b05cd5b1c562cd","amp;dn":"Priest+2011+BDRip+1080p+Dual+Audio+%5BHin+DD+5.1-Eng+Dts%5D+Tariq+Qu","amp;tr":["udp%3A%2F%2Ftracker.openbittorrent.com%3A80","udp%3A%2F%2Fopen.demonii.com%3A1337","udp%3A%2F%2Ftracker.coppersurfer.tk%3A6969","udp%3A%2F%2Fexodus.desync.com%3A6969"],"infoHash":"b6e4635a259f73d839710d0ad2b05cd5b1c562cd","infoHashBuffer":{"type":"Buffer","data":[182,228,99,90,37,159,115,216,57,113,13,10,210,176,92,213,177,197,98,205]},"announce":[],"urlList":[]}}